<?xml version="1.0" standalone="no"?>
<!DOCTYPE svg PUBLIC "-//W3C//DTD SVG 20010904//EN"
 "http://www.w3.org/TR/2001/REC-SVG-20010904/DTD/svg10.dtd">
<svg version="1.0" xmlns="http://www.w3.org/2000/svg"
 width="480.000000pt" height="480.000000pt" viewBox="0 0 480.000000 480.000000"
 preserveAspectRatio="xMidYMid meet">
<metadata>
Created by potrace 1.14, written by Peter Selinger 2001-2017
</metadata>
<g transform="translate(0.000000,480.000000) scale(0.100000,-0.100000)"
fill="#000000" stroke="none">
<path d="M2759 3818 c0 -2 -2 -11 -4 -20 -2 -10 -12 -30 -23 -45 -52 -73 -135
-273 -147 -354 -9 -59 -21 -80 -35 -59 -5 8 -13 15 -17 15 -9 0 -27 14 -66 50
-12 11 -38 27 -57 36 -45 20 -111 65 -105 71 3 3 -13 10 -35 17 -27 8 -38 16
-34 24 4 7 4 9 -1 5 -4 -4 -13 -4 -19 1 -6 5 -56 23 -111 39 -89 27 -112 30
-208 27 -59 -2 -127 -7 -150 -10 -67 -12 -187 -59 -187 -75 0 -5 -22 -21 -50
-36 -27 -15 -47 -30 -45 -34 2 -4 -9 -20 -25 -35 -26 -25 -31 -26 -47 -14 -17
13 -17 13 -3 -5 12 -15 12 -20 2 -24 -17 -5 -46 -64 -66 -134 -9 -31 -21 -60
-26 -63 -17 -11 -116 -214 -148 -305 -67 -191 -77 -332 -39 -525 9 -44 24
-118 33 -165 43 -226 66 -324 94 -401 17 -46 29 -92 26 -102 -2 -11 -2 -16 1
-13 8 8 109 -87 105 -99 -2 -5 -1 -7 3 -3 4 4 27 -12 52 -35 25 -23 54 -46 66
-51 12 -5 85 -10 162 -11 77 -1 145 -3 152 -4 23 -2 134 -102 127 -114 -4 -7
-4 -9 1 -5 11 10 37 -11 29 -23 -3 -5 0 -8 8 -7 7 2 12 -3 10 -10 -1 -8 2 -11
8 -7 6 4 28 -7 49 -24 60 -48 130 -78 208 -90 103 -16 162 -13 208 9 23 11 62
19 90 20 55 0 175 31 209 53 12 8 36 18 54 21 17 4 32 12 32 17 0 5 12 12 28
15 34 8 123 62 140 86 7 10 27 25 44 34 17 9 46 30 66 47 80 73 142 135 142
143 0 5 14 18 30 29 16 11 30 24 30 29 0 5 14 22 30 38 17 15 30 33 30 38 0 6
4 10 8 10 5 0 15 12 23 28 7 15 26 43 41 62 16 19 28 39 28 44 0 10 50 87 62
96 4 3 21 46 37 95 16 50 41 121 56 159 14 37 28 96 30 130 3 33 7 75 10 91 5
36 7 263 2 287 -2 10 -6 21 -10 24 -4 4 -7 15 -7 24 0 26 -35 131 -64 192 -30
64 -50 86 -113 129 -27 18 -50 35 -53 38 -24 27 -99 62 -165 78 -64 14 -117
18 -269 16 -104 -1 -204 -4 -223 -8 l-33 -6 0 81 c0 44 2 80 5 80 3 0 13 -4
23 -9 32 -16 177 -70 222 -82 56 -15 215 -15 254 0 16 7 72 54 124 106 52 52
99 92 105 88 6 -3 7 -1 3 5 -4 6 5 29 19 51 29 44 53 117 48 143 -6 26 -55 31
-271 26 -206 -5 -270 -17 -341 -65 -14 -10 -29 -16 -33 -15 -5 1 -7 -2 -5 -6
1 -5 -13 -22 -32 -38 l-35 -29 18 28 c10 15 23 27 29 27 6 0 7 3 4 6 -3 4 3
18 13 32 27 34 25 57 -7 87 -29 26 -52 32 -69 15 -11 -11 -56 -1 -48 11 3 5 3
9 0 9 -3 0 -6 -1 -7 -2z m-30 -184 c-49 -110 -89 -239 -96 -309 -7 -73 -23
-99 -23 -37 0 58 43 218 78 287 16 33 38 77 47 98 10 21 19 36 22 34 2 -2 -11
-35 -28 -73z m127 -178 c18 -6 38 -17 46 -24 8 -6 45 -19 82 -27 55 -13 85
-14 156 -6 48 5 104 17 124 25 46 19 46 13 -1 -18 -78 -49 -237 -41 -376 20
-43 19 -85 34 -93 34 -8 0 -12 5 -9 11 4 6 14 7 24 3 9 -4 30 -12 47 -18z
m-1587 -481 c-5 -55 -14 -134 -19 -175 -15 -115 -12 -388 6 -509 16 -110 39
-190 79 -276 48 -106 58 -130 58 -145 0 -8 7 -26 16 -40 10 -14 25 -44 36 -68
16 -38 102 -131 122 -132 4 -1 68 -2 141 -3 98 -1 135 -5 141 -15 5 -8 11 -13
15 -13 23 3 35 -3 69 -35 20 -19 37 -32 37 -29 0 11 56 -48 69 -73 6 -12 18
-22 26 -22 8 0 22 -11 31 -25 9 -14 21 -25 28 -25 6 0 31 -18 56 -40 25 -22
50 -40 55 -40 6 0 27 -11 47 -25 21 -14 54 -29 75 -34 35 -8 34 -9 -27 -10
-122 -1 -216 34 -305 113 -127 113 -173 150 -201 162 -21 9 -74 13 -165 12
-156 -2 -155 -2 -262 95 -66 60 -78 76 -105 145 -42 110 -41 105 -68 235 -13
65 -26 122 -28 126 -3 4 -19 83 -37 176 -51 274 -41 410 47 620 32 77 68 154
71 151 1 -1 -2 -47 -8 -101z"/>
<path d="M1286 1623 c-6 -14 -5 -15 5 -6 7 7 10 15 7 18 -3 3 -9 -2 -12 -12z"/>
</g>
</svg>
